# xmcd
# 
# Track frame offsets:
#     150
#     14090
#     33907
#     53735
# 
# Disc length: 1016
# 
# Revision: 0
# Processed by: cddbd v1.5.2PL0 Copyright (c) Steve Scherf et al.
# Submitted via: fre:ac v1.0.17
# 
DISCID=2b03f604
DTITLE=Zero Search - Are You Ready "TOKYO"
DYEAR=0
DGENRE=House
TTITLE0=Are You Ready "TOKYO" (Radio Edit)
TTITLE1=Are You Ready "TOKYO" (Extended Rap Version)
TTITLE2=Are You Ready "TOKYO" (Extended Version)
TTITLE3=Are You Ready "TOKYO" (Remix Version)
EXTD=
EXTT0=
EXTT1=
EXTT2=
EXTT3=
PLAYORDER=
